<svg width="24" height="24" xmlns="http://www.w3.org/2000/svg">

 <g>
  <title>background</title>
  <rect fill="none" id="canvas_background" height="402" width="582" y="-1" x="-1"/>
 </g>
 <g>
  <title>Layer 1</title>
  <path fill="#ffffff" id="svg_1" d="m22,5l-21,0c-0.6,0 -1,0.4 -1,1l0,17c0,0.6 0.4,1 1,1l21,0c0.6,0 1,-0.4 1,-1l0,-17c0,-0.6 -0.4,-1 -1,-1zm-20,7.1c1.1,0.2 2,1.2 2,2.4s-0.9,2.2 -2,2.4l0,-4.8zm0,9.9l0,-4.1c1.7,-0.2 3,-1.7 3,-3.4s-1.3,-3.2 -3,-3.4l0,-4.1l9,0l0,4.1c-1.7,0.2 -3,1.7 -3,3.4s1.3,3.2 3,3.4l0,4.1l-9,0zm9,-5.1c-1.1,-0.2 -2,-1.2 -2,-2.4s0.9,-2.2 2,-2.4l0,4.8zm1,-4.8c1.1,0.2 2,1.2 2,2.4s-0.9,2.2 -2,2.4l0,-4.8zm9,4.8c-1.1,-0.2 -2,-1.2 -2,-2.4s0.9,-2.2 2,-2.4l0,4.8zm0,-5.8c-1.7,0.2 -3,1.7 -3,3.4s1.3,3.2 3,3.4l0,4.1l-9,0l0,-4.1c1.7,-0.2 3,-1.7 3,-3.4s-1.3,-3.2 -3,-3.4l0,-4.1l9,0l0,4.1z"/>
 </g>
</svg>