<?xml version="1.0" encoding="iso-8859-1"?>
<!-- Generator: Adobe Illustrator 16.0.0, SVG Export Plug-In . SVG Version: 6.00 Build 0)  -->
<!DOCTYPE svg PUBLIC "-//W3C//DTD SVG 1.1//EN" "http://www.w3.org/Graphics/SVG/1.1/DTD/svg11.dtd">
<svg version="1.1" id="Layer_1" xmlns="http://www.w3.org/2000/svg" xmlns:xlink="http://www.w3.org/1999/xlink" x="0px" y="0px"
	 width="14px" height="14px" viewBox="0 0 14 14" style="enable-background:new 0 0 14 14;" xml:space="preserve">
<g>
  <path fill="#ffffff" d="m22,5l-21,0c-0.6,0 -1,0.4 -1,1l0,17c0,0.6 0.4,1 1,1l21,0c0.6,0 1,-0.4 1,-1l0,-17c0,-0.6 -0.4,-1 -1,-1zm-20,7.1c1.1,0.2 2,1.2 2,2.4s-0.9,2.2 -2,2.4l0,-4.8zm0,9.9l0,-4.1c1.7,-0.2 3,-1.7 3,-3.4s-1.3,-3.2 -3,-3.4l0,-4.1l9,0l0,4.1c-1.7,0.2 -3,1.7 -3,3.4s1.3,3.2 3,3.4l0,4.1l-9,0zm9,-5.1c-1.1,-0.2 -2,-1.2 -2,-2.4s0.9,-2.2 2,-2.4l0,4.8zm1,-4.8c1.1,0.2 2,1.2 2,2.4s-0.9,2.2 -2,2.4l0,-4.8zm9,4.8c-1.1,-0.2 -2,-1.2 -2,-2.4s0.9,-2.2 2,-2.4l0,4.8zm0,-5.8c-1.7,0.2 -3,1.7 -3,3.4s1.3,3.2 3,3.4l0,4.1l-9,0l0,-4.1c1.7,-0.2 3,-1.7 3,-3.4s-1.3,-3.2 -3,-3.4l0,-4.1l9,0l0,4.1z"/>
 </g>
 </svg>
