<svg width="50" height="50" xmlns="http://www.w3.org/2000/svg">

 <g>
  <title>background</title>
  <rect fill="none" id="canvas_background" height="402" width="582" y="-1" x="-1"/>
 </g>
 <g>
  <title>Layer 1</title>
  <rect stroke="#ffffff" id="svg_1" width="50" height="50" fill="none"/>
  <path id="svg_3" stroke-width="2" stroke-miterlimit="10" stroke-linejoin="round" stroke-linecap="round" stroke="#ffffff" fill="none" d="m25,2c-12.701,0 -23,10.298 -23,23s10.299,23 23,23s23,-10.298 23,-23s-10.299,-23 -23,-23l0,0z"/>
  <polygon id="svg_4" stroke-width="2" stroke-miterlimit="10" stroke-linejoin="round" stroke-linecap="round" stroke="#ffffff" points="  18.71,34.719 14.801,22.657 25.026,15.203 35.253,22.657 31.348,34.719 " fill="none"/>
  <polyline id="svg_5" stroke-width="2" stroke-miterlimit="10" stroke-linejoin="round" stroke-linecap="round" stroke="#ffffff" points="  33.738,3.788 25.026,7.505 16.316,3.788 " fill="none"/>
  <polyline id="svg_6" stroke-width="2" stroke-miterlimit="10" stroke-linejoin="round" stroke-linecap="round" stroke="#ffffff" points="  7.646,10.106 8.483,19.569 2.263,26.729 " fill="none"/>
  <polyline id="svg_7" stroke-width="2" stroke-miterlimit="10" stroke-linejoin="round" stroke-linecap="round" stroke="#ffffff" points="  5.576,36.957 14.803,39.082 19.672,47.228 " fill="none"/>
  <polyline id="svg_8" stroke-width="2" stroke-miterlimit="10" stroke-linejoin="round" stroke-linecap="round" stroke="#ffffff" points="  30.388,47.228 35.253,39.078 44.477,36.953 " fill="none"/>
  <polyline id="svg_9" stroke-width="2" stroke-miterlimit="10" stroke-linejoin="round" stroke-linecap="round" stroke="#ffffff" points="  47.793,26.727 41.568,19.563 42.404,10.106 " fill="none"/>
  <line id="svg_10" y2="15.203" y1="7.505" x2="25.026" x1="25.026" stroke-width="2" stroke-miterlimit="10" stroke-linejoin="round" stroke-linecap="round" stroke="#ffffff" fill="none"/>
  <line id="svg_11" y2="19.563" y1="22.956" x2="41.568" x1="35.253" stroke-width="2" stroke-miterlimit="10" stroke-linejoin="round" stroke-linecap="round" stroke="#ffffff" fill="none"/>
  <line id="svg_12" y2="39.078" y1="34.719" x2="35.253" x1="31.348" stroke-width="2" stroke-miterlimit="10" stroke-linejoin="round" stroke-linecap="round" stroke="#ffffff" fill="none"/>
  <line id="svg_13" y2="39.082" y1="34.719" x2="14.803" x1="18.71" stroke-width="2" stroke-miterlimit="10" stroke-linejoin="round" stroke-linecap="round" stroke="#ffffff" fill="none"/>
  <line id="svg_14" y2="22.657" y1="19.569" x2="14.801" x1="8.483" stroke-width="2" stroke-miterlimit="10" stroke-linejoin="round" stroke-linecap="round" stroke="#ffffff" fill="none"/>
 </g>
</svg>